<svg width="64" height="64" viewBox="0 0 64 64" fill="none" xmlns="http://www.w3.org/2000/svg" role="img" aria-label="Sumita">
  <rect width="64" height="64" rx="14" fill="#16223A"/>
  <path d="M41.6 22.2c-2.2-2.5-5.6-4-9.7-4-7 0-11.7 3.7-11.7 9.2 0 5 3.6 7.3 9.7 8.6 4.7 1 6.3 1.9 6.3 4 0 2.2-2.1 3.5-5.4 3.5-3.3 0-5.9-1.4-7.7-3.7l-4.9 4.1c2.6 3.4 6.9 5.4 12.3 5.4 7.4 0 12.4-3.7 12.4-9.6 0-5.2-3.7-7.5-10.2-8.9-4.4-1-5.8-1.7-5.8-3.6 0-1.9 1.8-3.1 4.8-3.1 3 0 5.3 1.2 6.9 3.2l3-2.6z" fill="#FFFFFF"/>
  <circle cx="48.5" cy="45.5" r="5" fill="#F6861F"/>
</svg>
